<?xml version="1.0" encoding="UTF-8"?>
<svg width="41px" height="36px" viewBox="0 0 41 36" version="1.1" xmlns="http://www.w3.org/2000/svg" xmlns:xlink="http://www.w3.org/1999/xlink">
    <!-- Generator: Sketch 47.1 (45422) - http://www.bohemiancoding.com/sketch -->
    <title>speed-limiter</title>
    <desc>Created with Sketch.</desc>
    <defs></defs>
    <g id="Stage" stroke="none" stroke-width="1" fill="none" fill-rule="evenodd">
        <g id="Artboard" transform="translate(-615.000000, -398.000000)" fill-rule="nonzero" fill="#FFFFFF">
            <path d="M621,402.585119 L621,402 C621,401.447715 621.447715,401 622,401 C622.552285,401 623,401.447715 623,402 L623,404.999985 C623,404.999996 623,405.000004 623,405.000013 L623,406 L622.000013,406 C622.000004,406 621.999996,406 621.999987,406 L619,406 C618.447715,406 618,405.552285 618,405 C618,404.447715 618.447715,404 619,404 L619.586454,404 L615.2951,399.706969 C614.904653,399.316368 614.904776,398.683203 615.295377,398.292755 C615.685978,397.902307 616.319143,397.902431 616.70959,398.293031 L621,402.585119 Z M633.553926,417.967851 L628.2951,412.706969 C627.904653,412.316368 627.904776,411.683203 628.295377,411.292755 C628.685978,410.902307 629.319143,410.902431 629.70959,411.293031 L634.968214,416.553712 C635.563687,416.201888 636.258267,416 637,416 C639.209139,416 641,417.790861 641,420 C641,422.209139 639.209139,424 637,424 C634.790861,424 633,422.209139 633,420 C633,419.258116 633.20197,418.563405 633.553926,417.967851 Z M631.431644,403.932925 L632.174817,405.77246 C632.381707,406.284562 632.134309,406.86743 631.62224,407.074333 C631.11017,407.281236 630.527339,407.033823 630.320449,406.521721 L629.583901,404.698585 C628.171184,405.384552 626.867746,406.260401 625.706767,407.292953 L627.100505,408.686779 C627.491029,409.077328 627.491029,409.710534 627.100505,410.101083 C626.709981,410.491632 626.076816,410.491632 625.686292,410.101083 L624.292534,408.707237 C623.261815,409.866242 622.387259,411.167209 621.701875,412.577128 L623.527476,413.352099 C624.035857,413.567908 624.273045,414.155005 624.05725,414.663418 C623.841455,415.171832 623.254395,415.409034 622.746014,415.193226 L620.935367,414.424603 C620.433351,415.871279 620.121237,417.406736 620.028857,419.001143 L622,419.001143 C622.552285,419.001143 623,419.448886 623,420.001206 C623,420.553526 622.552285,421.00127 622,421.00127 L620.029074,421.00127 C620.121022,422.580984 620.429711,424.118112 620.935914,425.577577 L622.746014,424.809186 C623.254395,424.593378 623.841455,424.830581 624.05725,425.338994 C624.273045,425.847407 624.035857,426.434504 623.527476,426.650313 L621.702164,427.425161 C622.380556,428.820963 623.250908,430.122572 624.29357,431.294139 L625.686292,429.901329 C626.076816,429.51078 626.709981,429.51078 627.100505,429.901329 C627.491029,430.291878 627.491029,430.925084 627.100505,431.315633 L624.979185,433.437088 C624.921594,433.494682 624.841741,433.513025 624.748696,433.50119 C624.359504,433.753337 623.834024,433.707259 623.494939,433.364632 C619.997868,429.831033 618,425.072162 618,420 C618,409.50659 626.50659,401 637,401 C647.49341,401 656,409.50659 656,420 C656,425.114956 653.968099,429.910558 650.41859,433.451448 C650.027591,433.841497 649.394427,433.840727 649.004378,433.449728 C648.955613,433.400846 648.912958,433.348178 648.87641,433.292673 L646.899495,431.315633 C646.508971,430.925084 646.508971,430.291878 646.899495,429.901329 C647.290019,429.51078 647.923184,429.51078 648.313708,429.901329 L649.706452,431.294161 C650.748984,430.122786 651.619374,428.821152 652.297834,427.42516 L650.472524,426.650313 C649.964143,426.434504 649.726955,425.847407 649.94275,425.338994 C650.158545,424.830581 650.745605,424.593378 651.253986,424.809186 L653.064066,425.577569 C653.570229,424.118199 653.878963,422.581066 653.970923,421.00127 L652,421.00127 C651.447715,421.00127 651,420.553526 651,420.001206 C651,419.448886 651.447715,419.001143 652,419.001143 L653.971143,419.001143 C653.87893,417.409621 653.567778,415.876836 653.067357,414.432458 L651.227843,415.175717 C650.715774,415.38262 650.132942,415.135207 649.926053,414.623105 C649.719163,414.111003 649.96656,413.528134 650.47863,413.321231 L652.301752,412.584595 C651.615827,411.171802 650.740004,409.868288 649.707466,408.707237 L648.313708,410.101083 C647.923184,410.491632 647.290019,410.491632 646.899495,410.101083 C646.508971,409.710534 646.508971,409.077328 646.899495,408.686779 L648.293233,407.292953 C647.134299,406.26222 645.833408,405.387638 644.423563,404.702211 L643.648685,406.527827 C643.43289,407.03624 642.84583,407.273443 642.337449,407.057634 C641.829068,406.841826 641.59188,406.254728 641.807675,405.746315 L642.576209,403.935649 C641.129641,403.433588 639.594296,403.121404 638,403.028924 L638,405.000254 C638,405.552574 637.552285,406.000317 637,406.000317 C636.447715,406.000317 636,405.552574 636,405.000254 L636,403.028924 C634.408589,403.121236 632.875915,403.432459 631.431644,403.932925 Z M637,422 C638.104569,422 639,421.104569 639,420 C639,418.895431 638.104569,418 637,418 C635.895431,418 635,418.895431 635,420 C635,421.104569 635.895431,422 637,422 Z" id="speed-limiter"></path>
        </g>
    </g>
</svg>