<?xml version="1.0" encoding="utf-8"?>
<!-- Generator: Adobe Illustrator 24.0.1, SVG Export Plug-In . SVG Version: 6.00 Build 0)  -->
<svg version="1.1" id="Layer_1" xmlns="http://www.w3.org/2000/svg" xmlns:xlink="http://www.w3.org/1999/xlink" x="0px" y="0px"
	 viewBox="0 0 301.7 301" style="enable-background:new 0 0 301.7 301;" xml:space="preserve">
<style type="text/css">
	.st0{display:none;}
	.st1{fill:#04378A;}
	.st2{fill:#FF9C2D;}
	.st3{opacity:0.27;fill:#B4D0FF;enable-background:new    ;}
	.st4{fill:#8CACDB;}
</style>
<g id="Layer_1_1_" class="st0">
	
		<image style="display:inline;overflow:visible;enable-background:new    ;" width="800" height="271" xlink:href="A6E4FC9E.jpeg"  transform="matrix(2.1178 0 0 2.1178 -42.8696 -136.7011)">
	</image>
</g>
<g id="Layer_2_1_">
	<g>
		<path class="st1" d="M169.1,298.4c-39.4,4.9-78.4-5.9-109.7-30.3C28,243.6,8.1,208.5,3.2,169c-4.9-39.4,5.9-78.4,30.3-109.7
			S93.1,8,132.6,3.2S211,9,242.3,33.5s51.3,59.6,56.1,99c4.9,39.4-5.9,78.4-30.3,109.7C243.7,273.6,208.5,293.5,169.1,298.4z"/>
		<path class="st2" d="M260.6,137.2c0.1,0.9,0.2,1.8,0.3,2.7c-100.6-25.4-219.8-3.4-219.8-3.4c6.3-48.9,45-89.2,96.1-95.5
			C197.9,33.5,253.1,76.6,260.6,137.2z"/>
		<path class="st3" d="M260.9,139.9c1.6,16.3-0.4,32.2-5.4,46.8c-12.6,36.6-44,65.2-84,72.8c-2.3,0.4-4.7,0.8-7.1,1.1
			c-14.3,1.8-28.2,0.7-41.3-2.7c-36.9-9.6-67-37.8-78.2-75.3c-1.8-5.9-3-11.9-3.8-18.2c-1.2-9.5-1.1-18.8,0.1-27.9
			C41.1,136.5,160.4,114.5,260.9,139.9z"/>
		<circle class="st4" cx="149.4" cy="178.6" r="32.1"/>
		<path class="st2" d="M123.1,257.9c-36.9-9.6-67-37.8-78.2-75.3l63.8,24.3L123.1,257.9z"/>
		<path class="st2" d="M255.5,186.7c-12.6,36.6-44,65.2-84,72.8c3.5-9.4,18-52.3,18-52.3L255.5,186.7z"/>
	</g>
</g>
</svg>
