<?xml version="1.0" encoding="UTF-8"?>
<svg width="40px" height="40px" viewBox="0 0 40 40" version="1.1" xmlns="http://www.w3.org/2000/svg" xmlns:xlink="http://www.w3.org/1999/xlink">
    <!-- Generator: Sketch 47.1 (45422) - http://www.bohemiancoding.com/sketch -->
    <title>stearing-wheel</title>
    <desc>Created with Sketch.</desc>
    <defs></defs>
    <g id="Stage" stroke="none" stroke-width="1" fill="none" fill-rule="evenodd">
        <g id="Artboard" transform="translate(-22.000000, -396.000000)" fill-rule="nonzero" fill="#FFFFFF">
            <path d="M43,416 C43.5522847,416 44,416.447715 44,417 C44,417.552285 43.5522847,418 43,418 C43,418.552285 42.5522847,419 42,419 C41.4477153,419 41,418.552285 41,418 C40.4477153,418 40,417.552285 40,417 C40,416.447715 40.4477153,416 41,416 C41,415.447715 41.4477153,415 42,415 C42.5522847,415 43,415.447715 43,416 Z M42,436 C30.954305,436 22,427.045695 22,416 C22,404.954305 30.954305,396 42,396 C53.045695,396 62,404.954305 62,416 C62,427.045695 53.045695,436 42,436 Z M42,434 C51.9411255,434 60,425.941125 60,416 C60,406.058875 51.9411255,398 42,398 C32.0588745,398 24,406.058875 24,416 C24,425.941125 32.0588745,434 42,434 Z M39.8966716,423.579068 C40.0733431,424.177496 40.331252,426.083963 40.4315505,427.622729 C40.4926367,428.559903 40.4988038,429.351681 40.4364976,429.944696 C40.3118635,431.130931 39.9461151,431.91171 38.810016,431.681773 C33.7256867,430.652744 29.4558018,427.195011 27.3646889,422.475172 C26.4974747,420.517788 29.738587,418.271199 33.1590181,418.904009 C35.3689377,419.312863 39.4671961,422.124334 39.8966716,423.579068 Z M38.4357856,427.752815 C38.3443886,426.350615 38.1031857,424.567639 37.9785172,424.145357 C37.7965597,423.529025 34.3373483,421.15595 32.795175,420.870635 C31.5450443,420.639349 30.5379185,420.845898 29.8324099,421.334924 C29.580371,421.509626 29.3922453,421.707096 29.2904726,421.879547 C31.0465253,425.669237 34.4221292,428.497338 38.4632271,429.549609 C38.4933498,429.099626 38.4832059,428.480331 38.4357856,427.752815 Z M43.8061049,423.579068 C44.2355804,422.124334 48.3338388,419.312863 50.5437584,418.904009 C53.9641895,418.271199 57.2053018,420.517788 56.3380876,422.475172 C54.2469747,427.195011 49.9770898,430.652744 44.8927605,431.681773 C43.7566614,431.91171 43.390913,431.130931 43.2662789,429.944696 C43.2039727,429.351681 43.2101398,428.559903 43.271226,427.622729 C43.3715245,426.083963 43.6294334,424.177496 43.8061049,423.579068 Z M45.2669909,427.752815 C45.2195705,428.480331 45.2094267,429.099626 45.2395494,429.549609 C49.2806473,428.497338 52.6562512,425.669237 54.4123038,421.879547 C54.3105312,421.707096 54.1224055,421.509626 53.8703666,421.334924 C53.164858,420.845898 52.1577322,420.639349 50.9076015,420.870635 C49.3654281,421.15595 45.9062168,423.529025 45.7242593,424.145357 C45.5995908,424.567639 45.3583879,426.350615 45.2669909,427.752815 Z M42,412 C39.2749846,412 37.3981467,412.69162 34.717372,414.336667 C34.5080757,414.4651 33.7959743,414.907936 33.7683667,414.925016 C33.3875571,415.160619 33.0972164,415.335887 32.8113599,415.50075 C32.5653793,415.642616 32.3332177,415.770379 32.1065345,415.887856 C28.4655862,417.774741 26.0264444,418.229871 25.1115599,416.458993 C24.3226583,414.931971 24.7184919,413.841706 26.0444631,412.056547 C26.388268,411.593682 26.4717936,411.478185 26.5995751,411.280144 C26.7420657,411.059307 26.837228,410.876659 26.8920226,410.719864 C29.117596,404.351395 35.1443617,400 42,400 C48.870971,400 54.908194,404.37082 57.1218699,410.759788 C57.1750637,410.913313 57.2679205,411.092547 57.4071215,411.309104 C57.534579,411.507392 57.6194776,411.624864 57.9629161,412.087137 C59.2812792,413.861672 59.6748195,414.944828 58.8874539,416.460897 C57.9757995,418.216282 55.5530206,417.761625 51.9372871,415.887861 C51.7376061,415.784381 51.5333132,415.672849 51.3189697,415.550807 C51.0194873,415.380288 50.714965,415.198061 50.3178758,414.953953 C50.2639051,414.920775 49.5399288,414.473037 49.3248841,414.341861 C46.6250872,412.695008 44.7307995,412 42,412 Z M42,410 C45.1638808,410 47.3812882,410.81356 50.3663918,412.634447 C50.587715,412.769453 51.3159664,413.219835 51.3652785,413.250149 C51.7449258,413.483535 52.0319783,413.655308 52.3085581,413.812786 C52.5009977,413.922357 52.6823957,414.02139 52.857511,414.112139 C54.2995022,414.859415 55.4822409,415.323218 56.3204962,415.480525 C56.9117643,415.591482 57.110176,415.543667 57.1125461,415.539103 C57.4189526,414.949119 57.2479339,414.478418 56.3574878,413.279865 C55.9824517,412.775061 55.8868563,412.642788 55.7247144,412.390541 C55.5064657,412.051009 55.3438552,411.737134 55.2320908,411.414567 C53.2953326,405.824821 48.0122751,402 42,402 C36.0011298,402 30.7272357,405.807813 28.7800525,411.37967 C28.6664057,411.70487 28.5015228,412.021335 28.2801167,412.364478 C28.1184613,412.615018 28.0246712,412.744708 27.650014,413.24911 C26.7506816,414.459884 26.5770191,414.938211 26.8884401,415.541007 C26.8943589,415.552464 27.0970798,415.60194 27.6958867,415.490206 C28.5407011,415.332568 29.7325727,414.865519 31.18629,414.112144 C31.3847383,414.009301 31.5909257,413.895832 31.8121585,413.768239 C32.0769671,413.615514 32.3513088,413.449905 32.7160971,413.224214 C32.7392391,413.209896 33.4559858,412.764172 33.6713275,412.632029 C36.6383467,410.811329 38.8400373,410 42,410 Z" id="stearing-wheel"></path>
        </g>
    </g>
</svg>