<?xml version="1.0" encoding="UTF-8"?>
<svg width="19px" height="20px" viewBox="0 0 19 20" version="1.1" xmlns="http://www.w3.org/2000/svg" xmlns:xlink="http://www.w3.org/1999/xlink">
    <!-- Generator: Sketch 46 (44423) - http://www.bohemiancoding.com/sketch -->
    <title>note</title>
    <desc>Created with Sketch.</desc>
    <defs></defs>
    <g id="icons" stroke="none" stroke-width="1" fill="none" fill-rule="evenodd">
        <g id="Artboard" transform="translate(-780.000000, -252.000000)" fill-rule="nonzero" fill="#FFFFFF">
            <path d="M797.180326,264.795621 L794.633824,265.244638 L795.082841,267.791141 L797.180326,264.795621 Z M794.169961,268.37271 L793.649016,265.418286 C793.553113,264.874392 793.916281,264.355734 794.460176,264.259831 L797.414599,263.738886 L795.678117,253.890808 L781.890808,256.321883 L784.321883,270.109192 L794.169961,268.37271 Z M781.71716,255.337075 L795.504469,252.906001 C796.048363,252.810097 796.567022,253.173266 796.662925,253.71716 L798.573055,264.550046 L795.328416,269.183869 L784.495531,271.093999 C783.951637,271.189903 783.432978,270.826734 783.337075,270.28284 L780.906001,256.495531 C780.810097,255.951637 781.173266,255.432978 781.71716,255.337075 Z M784.555017,259.913818 L784.381369,258.92901 L794.226618,257.193027 L794.400266,258.177834 L784.555017,259.913818 Z M785.075961,262.868241 L784.902313,261.883433 L794.747563,260.14745 L794.921211,261.132258 L785.075961,262.868241 Z M785.596906,265.822664 L785.423258,264.837856 L791.329276,263.796466 L791.502924,264.781274 L785.596906,265.822664 Z" id="note"></path>
        </g>
    </g>
</svg>